<svg xmlns="http://www.w3.org/2000/svg" xmlns:xlink="http://www.w3.org/1999/xlink" width="192" zoomAndPan="magnify" viewBox="0 0 144 80.999996" height="108" preserveAspectRatio="xMidYMid meet" version="1.0"><defs><clipPath id="76efc558b9"><path d="M 50.683594 24.300781 L 93.433594 24.300781 L 93.433594 56.550781 L 50.683594 56.550781 Z M 50.683594 24.300781 " clip-rule="nonzero"/></clipPath></defs><rect x="-14.4" width="172.8" fill="#ffffff" y="-8.1" height="97.199995" fill-opacity="1"/><rect x="-14.4" width="172.8" fill="#e3e8ed" y="-8.1" height="97.199995" fill-opacity="1"/><g clip-path="url(#76efc558b9)"><path fill="#545454" d="M 91.753906 26.027344 L 91.753906 54.9375 L 52.195312 54.9375 L 52.195312 26.027344 Z M 93.28125 24.503906 L 50.65625 24.503906 L 50.65625 56.480469 L 93.28125 56.480469 Z M 56.757812 50.371094 L 87.1875 50.371094 L 80.449219 32.875 L 71.96875 44.042969 L 66.316406 38.460938 Z M 60.546875 33.636719 C 59.285156 33.636719 58.265625 34.660156 58.265625 35.929688 C 58.265625 37.195312 59.285156 38.21875 60.546875 38.21875 C 61.804688 38.21875 62.828125 37.195312 62.828125 35.929688 C 62.828125 34.660156 61.804688 33.636719 60.546875 33.636719 Z M 60.546875 33.636719 " fill-opacity="1" fill-rule="nonzero"/></g></svg>